<svg width="24" height="24" viewBox="0 0 24 24" fill="none" xmlns="http://www.w3.org/2000/svg">
<path fill-rule="evenodd" clip-rule="evenodd" d="M8.30542 12.7505C8.10986 12.5549 8 12.2896 8 12.013C8 11.7364 8.10986 11.4711 8.30542 11.2755L14.2065 5.37437C14.3028 5.27474 14.4179 5.19527 14.5451 5.1406C14.6724 5.08593 14.8093 5.05715 14.9478 5.05595C15.0863 5.05474 15.2237 5.08114 15.3519 5.13359C15.4801 5.18604 15.5965 5.2635 15.6945 5.36144C15.7924 5.45938 15.8699 5.57585 15.9223 5.70405C15.9748 5.83225 16.0012 5.96961 16 6.10812C15.9988 6.24663 15.97 6.38351 15.9153 6.51078C15.8606 6.63805 15.7812 6.75316 15.6815 6.84939L10.5179 12.013L15.6815 17.1766C15.8716 17.3733 15.9767 17.6368 15.9743 17.9103C15.9719 18.1838 15.8622 18.4455 15.6688 18.6389C15.4754 18.8323 15.2138 18.942 14.9403 18.9444C14.6668 18.9468 14.4033 18.8416 14.2065 18.6516L8.30542 12.7505Z" fill="#64748B"/>
</svg>
