<svg width="38" height="38" viewBox="0 0 38 38" fill="none" xmlns="http://www.w3.org/2000/svg">
<rect x="0.5" y="0.5" width="37" height="37" rx="18.5" fill="#E4F8EC"/>
<rect x="0.5" y="0.5" width="37" height="37" rx="18.5" stroke="white"/>
<path d="M27.0545 11.4179L27.0545 11.4179C26.8338 11.2708 26.5638 11.2174 26.3037 11.2694C26.0437 11.3214 25.815 11.4746 25.6678 11.6953L25.6678 11.6953L17.344 24.1805L12.2066 19.0432L12.2067 19.0431L12.2003 19.037C12.0107 18.8604 11.76 18.7642 11.5009 18.7688C11.2418 18.7734 10.9947 18.8783 10.8114 19.0615C10.6282 19.2448 10.5233 19.4919 10.5187 19.751C10.5141 20.0101 10.6103 20.2608 10.7869 20.4504L10.7868 20.4505L10.7931 20.4567L16.7931 26.4567L16.7931 26.4567C16.8977 26.5613 17.0242 26.6413 17.1634 26.6911C17.3027 26.7409 17.4512 26.7592 17.5984 26.7447C17.7456 26.7301 17.8877 26.6831 18.0145 26.6071C18.1413 26.531 18.2497 26.4277 18.3318 26.3047L18.3319 26.3046L27.3319 12.8046L27.3319 12.8046C27.479 12.5839 27.5324 12.3139 27.4804 12.0538C27.4284 11.7938 27.2752 11.5651 27.0545 11.4179Z" fill="#22C55E" stroke="#22C55E" stroke-width="0.5"/>
</svg>
